<svg width="30" height="30" viewBox="0 0 30 30" fill="none" xmlns="http://www.w3.org/2000/svg">
<g id="outline / settings">
<g id="shape">
<path d="M13.75 3.75H16.25C16.9404 3.75 17.5 4.30964 17.5 5V5.71098C17.5 6.24573 17.8589 6.71031 18.3528 6.91536C18.8468 7.12048 19.4221 7.0423 19.8004 6.66403L20.3033 6.16114C20.7914 5.67298 21.5829 5.67298 22.071 6.16114L23.8388 7.9289C24.3269 8.41706 24.3269 9.20851 23.8388 9.69667L23.336 10.1995C22.9577 10.5778 22.8795 11.1531 23.0846 11.6472C23.2897 12.1411 23.7543 12.5 24.2891 12.5L25 12.5C25.6904 12.5 26.25 13.0596 26.25 13.75V16.25C26.25 16.9404 25.6904 17.5 25 17.5H24.289C23.7543 17.5 23.2897 17.8589 23.0846 18.3528C22.8795 18.8469 22.9577 19.4222 23.336 19.8004L23.8388 20.3033C24.327 20.7914 24.327 21.5829 23.8388 22.071L22.071 23.8388C21.5829 24.327 20.7914 24.327 20.3033 23.8388L19.8004 23.336C19.4221 22.9577 18.8469 22.8795 18.3528 23.0846C17.8589 23.2897 17.5 23.7543 17.5 24.289V25C17.5 25.6904 16.9404 26.25 16.25 26.25H13.75C13.0596 26.25 12.5 25.6904 12.5 25V24.2891C12.5 23.7543 12.1411 23.2897 11.6472 23.0846C11.1531 22.8795 10.5778 22.9577 10.1995 23.336L9.69665 23.8388C9.20849 24.327 8.41704 24.327 7.92888 23.8388L6.16111 22.071C5.67296 21.5829 5.67296 20.7914 6.16111 20.3033L6.66403 19.8004C7.0423 19.4221 7.12048 18.8468 6.91536 18.3528C6.71031 17.8589 6.24573 17.5 5.71098 17.5H5C4.30964 17.5 3.75 16.9404 3.75 16.25V13.75C3.75 13.0596 4.30964 12.5 5 12.5L5.71096 12.5C6.24572 12.5 6.71031 12.1411 6.91537 11.6472C7.1205 11.1531 7.04232 10.5779 6.66404 10.1996L6.16114 9.69667C5.67298 9.20852 5.67298 8.41706 6.16114 7.92891L7.9289 6.16114C8.41706 5.67298 9.20851 5.67298 9.69667 6.16114L10.1996 6.66404C10.5779 7.04232 11.1531 7.1205 11.6472 6.91537C12.1411 6.71031 12.5 6.24572 12.5 5.71095V5C12.5 4.30964 13.0596 3.75 13.75 3.75Z" stroke="black" stroke-width="2" stroke-linecap="round" stroke-linejoin="round"/>
<path d="M17.5 15C17.5 16.3807 16.3807 17.5 15 17.5C13.6193 17.5 12.5 16.3807 12.5 15C12.5 13.6193 13.6193 12.5 15 12.5C16.3807 12.5 17.5 13.6193 17.5 15Z" stroke="black" stroke-width="2" stroke-linecap="round" stroke-linejoin="round"/>
</g>
</g>
</svg>
