<svg width="24" height="25" viewBox="0 0 24 25" fill="none" xmlns="http://www.w3.org/2000/svg">
<path d="M19 13.2037C19.5523 13.2037 20 12.756 20 12.2037C20 11.6515 19.5523 11.2037 19 11.2037C18.4477 11.2037 18 11.6515 18 12.2037C18 12.756 18.4477 13.2037 19 13.2037Z" stroke="black" stroke-width="2" stroke-linecap="round" stroke-linejoin="round"/>
<path d="M12 13.2037C12.5523 13.2037 13 12.756 13 12.2037C13 11.6515 12.5523 11.2037 12 11.2037C11.4477 11.2037 11 11.6515 11 12.2037C11 12.756 11.4477 13.2037 12 13.2037Z" stroke="black" stroke-width="2" stroke-linecap="round" stroke-linejoin="round"/>
<path d="M5 13.2037C5.55228 13.2037 6 12.756 6 12.2037C6 11.6515 5.55228 11.2037 5 11.2037C4.44772 11.2037 4 11.6515 4 12.2037C4 12.756 4.44772 13.2037 5 13.2037Z" stroke="black" stroke-width="2" stroke-linecap="round" stroke-linejoin="round"/>
</svg>
