<svg width="30" height="30" viewBox="0 0 30 30" fill="none" xmlns="http://www.w3.org/2000/svg">
<g id="outline / bell">
<path id="shape" d="M11.25 21.25V22.5C11.25 22.9925 11.347 23.4801 11.5355 23.9351C11.7239 24.39 12.0001 24.8034 12.3483 25.1517C12.6966 25.4999 13.11 25.7761 13.5649 25.9645C14.0199 26.153 14.5075 26.25 15 26.25C15.4925 26.25 15.9801 26.153 16.4351 25.9645C16.89 25.7761 17.3034 25.4999 17.6517 25.1517C17.9999 24.8034 18.2761 24.39 18.4645 23.9351C18.653 23.4801 18.75 22.9925 18.75 22.5V21.25M11.25 21.25H5C5 21.25 7.5 16.25 7.5 11.25C7.5 7.165 10.915 3.75 15 3.75C19.085 3.75 22.5 7.165 22.5 11.25C22.5 15 25 21.25 25 21.25H18.75M11.25 21.25H18.75" stroke="black" stroke-width="2" stroke-linecap="round" stroke-linejoin="round"/>
</g>
</svg>
